<?xml version="1.0" encoding="UTF-8" standalone="no"?>
<!-- Created with Inkscape (http://www.inkscape.org/) -->

<svg
   version="1.1"
   id="svg1"
   width="666.383"
   height="314.55319"
   viewBox="0 0 666.383 314.55319"
   xmlns="http://www.w3.org/2000/svg"
   xmlns:svg="http://www.w3.org/2000/svg">
  <defs
     id="defs1" />
  <g
     id="g1">
    <g
       id="g2"
       transform="translate(22.535374,3.1876933)">
      <path
         style="fill:#cbafd8"
         d="m 421.65933,193.18529 c -425.8099277,-190.716129 -425.8099277,-190.716129 0,0 z m -273.68838,40.82314 c 8.10755,-0.13482 0,0 0,0 z m 244.61417,-2.01683 c -396.7357177,-229.522439 -396.7357177,-229.522439 0,0 z m 6.94681,-6.84043 c -403.6825277,-222.682009 -403.6825277,-222.682009 0,0 z m -27.44905,-9.78947 c -376.2334777,-212.892539 -376.2334777,-212.892539 0,0 z m 4.80851,-2.7234 c 0.4533,0.0577 0,0 0,0 z m 9.19149,-1.02128 c 0.45327,0.0577 0,0 0,0 z m 43.91489,-1.53191 c -434.1483677,-207.615949 -434.1483677,-207.615949 0,0 z m -44.10642,-2.12064 c -0.12121,0.62805 0.12123,-0.62805 0,0 z M 366.38299,204 c -370.5335877,-201.530839 -370.5335877,-201.530839 0,0 z m 19.50931,-3.44681 c -390.0428977,-198.084029 -390.0428977,-198.084029 0,0 z m 0.19058,-3.74468 c 0.82619,-0.57984 0,0 0,0 z m 90.89362,0 c -481.1270977,-194.339349 -481.1270977,-194.339349 0,0 z m -47.22116,-12.09574 c -433.9059377,-182.243609 -433.9059377,-182.243609 0,0 z m -31.5532,-1.23198 c -402.3527377,-181.011629 -402.3527377,-181.011629 0,0 z m 8.39361,0.0106 c -410.7463477,-181.022229 -410.7463477,-181.022229 0,0 z m 190.59575,-5.53415 c -601.3420977,-175.488079 -601.3420977,-175.488079 0,0 z m -141.84118,-2.67039 c -459.5009177,-172.817689 -459.5009177,-172.817689 0,0 z"
         id="path8" />
      <path
         style="fill:#ab7dc0"
         d="m 63.49536,222.87159 c -67.6459577,-220.402429 -67.6459577,-220.402429 0,0 z m 8.034317,-76.10563 c 0.453292,0.0577 0,0 0,0 z m 11.193729,-30.02258 c 0,-0.10604 0.402128,-0.50817 0.893617,-0.89362 0.809901,-0.63517 0.827963,-0.61711 0.192795,0.19279 -0.667083,0.8506 -1.086412,1.1211 -1.086412,0.70083 z M 150.12766,78.893617 c -1.24035,-1.26383 -2.14029,-2.297872 -1.99987,-2.297872 0.14043,0 1.27016,1.034042 2.51051,2.297872 1.24036,1.26383 2.1403,2.297873 1.99987,2.297873 -0.14042,0 -1.27015,-1.034043 -2.51051,-2.297873 z"
         id="path5" />
      <path
         style="fill:#a777bd"
         d="m 390.88165,253.82766 c -4.02994,-0.64622 -8.41356,-2.05403 -8.41356,-2.70204 0,-1.15107 1.67208,-6.52987 2.02991,-6.52987 0.19987,0 1.72065,0.49176 3.37952,1.09281 4.11682,1.49163 14.58697,1.66634 18.12075,0.30238 3.97837,-1.53557 6.07636,-4.52481 6.82616,-9.72595 l 0.3544,-2.45841 -6.08739,0.35606 c -5.69949,0.33338 -11.48429,-0.5213 -12.79435,-1.08951 -0.87327,-0.37875 -2.50465,-0.99907 -5.05255,-2.28433 -3.98848,-2.01195 -2.23817,-0.81084 -5.11149,-3.21135 -5.31499,-4.4404 -6.97048,-10.67395 -7.00391,-22.30085 -0.0266,-9.25141 0.83516,-13.57418 3.63713,-18.24474 2.36973,-3.95008 4.3231,-5.88773 7.80799,-7.74516 4.52058,-2.40944 8.14578,-3.16686 15.17387,-3.17031 5.96167,-0.003 11.88308,0.93771 16.14675,2.56497 l 1.42678,0.54454 -0.15695,30.51471 c -0.14022,27.26274 -0.24926,30.74659 -1.02313,32.69053 -2.09247,5.25622 -5.78979,8.69938 -11.37561,10.59364 -2.90994,0.98682 -13.71287,1.4718 -17.88432,0.80288 z m 15.3442,-30.17442 c 1.36634,-0.66143 3.01039,-2.02543 3.86763,-3.20882 2.7251,-3.76189 3.01291,-5.78316 3.01291,-21.1589 v -13.97593 l -1.91489,-0.8345 c -2.87164,-1.25143 -12.07963,-1.50838 -15.33279,-0.42786 -6.96879,2.31467 -10.33983,8.98933 -10.31792,20.42953 0.0213,11.13643 3.80584,18.59472 10.26684,20.23325 2.81913,0.71495 7.80256,0.20946 10.41822,-1.05677 z m 40.6361,7.87909 c -8.11492,-2.18222 -13.55339,-8.16735 -15.59298,-17.16035 -1.06996,-4.71767 -1.82215,-13.43379 -1.82215,-21.11437 0,-7.3705 0.60136,-11.69191 1.81339,-13.03119 0.78948,-0.87237 1.22179,-0.98596 8.65469,-2.2741 2.24681,-0.38938 5.46383,-1.06095 7.14894,-1.49238 6.09278,-1.5599 14.27142,-0.69012 18.92815,2.01296 4.73127,2.74634 8.43662,8.00899 10.24329,14.54838 1.29211,4.67684 1.2952,17.27646 0.005,21.92099 -2.56337,9.23055 -8.29363,15.04915 -16.56365,16.81904 -3.64291,0.77963 -9.45028,0.67586 -12.81506,-0.22898 z m 12.02572,-7.10179 c 4.84989,-1.44026 8.18239,-6.13149 9.40534,-13.2401 0.75891,-4.41128 0.34363,-13.89547 -0.7654,-17.48028 -1.97761,-6.39244 -6.4105,-10.30281 -12.20697,-10.76809 -5.24379,-0.42092 -8.24381,0.5528 -11.38688,3.69587 -3.23007,3.23008 -4.66851,7.2601 -5.137,14.39216 -1.13273,17.24416 7.39095,27.17193 20.09091,23.40044 z m 65.28256,7.22289 c -8.04945,-2.10349 -13.42806,-7.746 -15.89485,-16.67471 -1.29145,-4.67447 -1.29519,-17.27658 -0.007,-21.91661 1.38638,-4.99182 3.49394,-8.6994 6.63212,-11.66708 4.28428,-4.0515 9.10314,-5.74312 16.31565,-5.72748 14.29111,0.031 21.36592,8.74412 20.03856,24.67889 l -0.36814,4.41952 H 533.31539 515.7442 v 2.27274 c 0,5.34479 2.08783,10.94372 5.18845,13.91387 5.07314,4.85966 14.82659,4.18697 23.02358,1.59445 1.44814,-0.45801 2.50347,-0.83222 2.8362,-1.00346 0.33154,-0.17062 2.66377,-1.32593 5.10639,-3.10615 2.44262,-1.78022 5.30283,-3.76501 6.35602,-4.41065 l 1.9149,-1.17388 v -18.08602 -18.08601 h 2.80851 c 1.54468,0 7.6367,0.0306 10.65298,-0.0458 5.72578,-0.14492 2.04088,0.0998 5.79587,-0.31143 2.32078,-0.25416 4.56104,-0.73258 8.01685,-0.55182 7.5329,0.39402 11.57585,2.84552 13.92092,8.44116 1.80124,4.29797 2.17305,9.1066 2.19131,28.34022 l 0.0178,18.76596 h -4.0851 -4.08511 l -0.0158,-16.46809 c -0.009,-9.05744 -0.23929,-18.19086 -0.51249,-20.29648 -0.63,-4.85558 -2.49798,-8.77076 -4.88997,-10.24909 -2.7971,-1.7287 -7.37062,-1.89614 -11.71446,-0.42886 -4.20981,1.422 -6.81914,3.61084 -8.62532,7.23537 l -0.84178,2.57625 -0.46404,18.83754 v 18.79336 h -4.06594 -4.06595 l -0.14682,-4.59407 -0.14682,-4.59408 -4.02595,2.607 c -5.00625,3.24179 -8.16634,3.85321 -9.411,4.50148 -0.27086,0.14108 -2.33161,0.62789 -4.52767,1.37016 -4.81167,1.62635 -13.58079,2.14115 -17.78006,1.04379 z m 19.14893,-35.46104 c 0,-2.49353 -1.28713,-7.4292 -2.36731,-9.07776 -0.46277,-0.70628 -1.90029,-1.90664 -3.19449,-2.66747 -2.11529,-1.24353 -2.84333,-1.38271 -7.20416,-1.37719 -4.42088,0.006 -5.09682,0.14144 -7.62247,1.53191 -3.94714,2.17306 -5.82672,5.31026 -6.95637,11.61089 l -0.34332,1.91489 h 13.84406 13.84406 z m -55.14893,18.2757 v -16.85107 l 1.7578,-0.96827 c 0.77234,0.002 2.25709,1.12161 3.73156,1.29872 l 2.30585,1.60325 0.375,15.24337 v 16.52462 h -4.08511 -4.0851 z m -424.510654,8.85106 c -0.899935,-0.89994 -0.09734,-3.91705 2.412947,-9.07069 1.523407,-3.12758 2.912221,-6.77748 3.108967,-8.17059 0.50642,-3.58585 2.211615,-8.85073 2.954392,-9.12184 0.400985,-0.14636 0.02304,-0.83623 -1.039462,-1.89738 -3.437629,-3.43323 -10.762068,-22.851 -11.862376,-27.14568 -0.707107,-2.75995 -0.876647,-3.75106 -1.358848,-6.8183 -1.544742,-9.82596 -1.693767,-24.5055 1.825471,-31.26783 1.984766,-3.81379 5.367252,-6.9945 9.582321,-9.01072 2.296399,-1.09845 5.041679,-2.9256 6.459762,-4.29937 6.108856,-5.91796 11.596093,-13.16869 11.596093,-16.840039 0,-1.515164 0.573594,-5.239918 3.291786,-11.590384 5.24653,-12.25738 7.666478,-16.915301 9.872291,-19.002207 4.74449,-4.488728 12.45686,-8.338288 20.22047,-10.092862 1.70852,-0.386125 3.82773,-1.382927 5.02395,-1.463505 2.79697,-0.188406 3.21637,-0.294476 7.78458,0.686068 1.46214,0.313842 3.70213,1.058748 5.10638,1.210014 3.79177,0.408448 9.82735,2.955056 15.44338,6.516071 10.62277,6.735686 14.2342,10.272598 15.67219,15.348825 0.50198,1.772049 1.50276,4.600631 2.22396,6.285737 1.13145,2.643693 1.35418,4.079161 1.62425,10.468085 0.25986,6.147467 0.50849,7.837637 1.46482,9.957447 1.27132,2.81806 8.84291,15.06051 9.31573,15.06255 0.16363,7e-4 1.0342,-0.91543 1.93459,-2.03585 2.48462,-3.09178 5.98523,-13.834 6.40831,-19.665 0.88358,-12.177707 1.76012,-17.389675 3.27577,-19.477935 1.12173,-1.545528 1.90923,-1.498522 3.00821,0.179559 0.79168,1.208844 0.8917,2.507537 0.79638,10.340426 -0.06,4.926874 -0.24515,9.8771 -0.41156,11.00051 l -0.30257,2.04255 1.094,0.0113 c 1.46685,0.0152 0.67047,0.0383 2.33671,-1.08478 0.90257,-0.60835 0.84181,-0.67841 3.02441,-3.56788 1.78938,-2.368901 2.79928,-3.273545 3.65441,-3.273545 3.06645,0 0.0442,7.320185 -8.74918,21.191485 -2.49255,3.93192 -5.70118,9.19618 -7.1303,11.69837 -1.42912,2.50218 -3.31201,5.27622 -4.18421,6.16453 -0.87219,0.8883 -2.3914,2.86234 -3.37602,4.38674 -3.78766,5.8641 -9.85491,11.11785 -17.97475,15.56469 -10.42142,5.70731 -28.58257,11.78895 -42.68044,14.29243 -9.44897,1.67793 -16.31968,3.12265 -18.18984,3.8248 -3.3916,1.27337 -10.868342,5.89984 -11.120886,6.8814 -0.565935,2.1996 -8.570261,13.632 -11.879599,16.96736 -5.010569,5.04996 -6.327587,6.88375 -9.265082,12.90054 -2.804584,5.74454 -3.903659,6.59151 -4.610397,7.14893 -1.188628,0.9375 -0.962633,0.63192 -1.442234,1.40426 -1.982681,3.19287 -3.842009,4.45847 -4.938776,3.3617 z m 18.765162,-42.72871 c 1.860152,-2.62419 3.952154,-5.3068 4.648893,-5.96135 1.132584,-1.06401 1.266723,-1.59994 1.266099,-5.05853 -3.84e-4,-2.12764 -0.346248,-5.82162 -0.768587,-8.20886 -0.473513,-2.67648 -0.800949,-8.05982 -0.854125,-14.04255 -0.07766,-8.73706 0.02469,-10.03999 1.028916,-13.09873 1.603865,-4.88515 3.885395,-8.02952 7.232792,-9.96813 7.034964,-4.0742 8.248894,-5.47389 14.538374,-16.76293 5.67948,-10.194158 7.96831,-13.58445 11.55555,-17.116419 4.23879,-4.173491 7.46373,-5.813434 11.43799,-5.816434 4.05002,-0.0031 6.39214,0.863572 8.89302,3.290587 4.69789,4.559149 12.1288,23.573676 16.90972,43.269296 1.38186,5.69274 2.75335,10.80053 3.04777,11.35065 0.50159,0.93723 0.7898,0.8115 4.57711,-1.99661 2.223,-1.64826 5.43459,-3.8429 7.13688,-4.87698 1.70229,-1.03409 3.09508,-1.97197 3.09508,-2.08418 0,-0.11221 -1.40278,-2.336 -3.11729,-4.94175 -5.86193,-8.90911 -9.5818,-17.47408 -10.65011,-24.52177 -0.72647,-4.79253 -2.77141,-12.569352 -4.05017,-15.402661 -1.90603,-4.223095 -11.85879,-14.328784 -16.38722,-16.639019 -1.0135,-0.517046 -2.75118,-1.104871 -3.86152,-1.30628 -1.11034,-0.201408 -2.59327,-0.648421 -3.2954,-0.993362 -0.70212,-0.344941 -2.59851,-0.757269 -4.21419,-0.916284 -2.45517,-0.241636 -3.29378,-0.09461 -5.10639,0.895254 -1.19283,0.651404 -3.3142,1.346398 -4.71417,1.54443 -2.88806,0.40853 -8.32088,2.728894 -10.77879,4.603633 -1.84167,1.404713 -8.17153,13.731774 -10.747452,20.93009 -1.177312,3.289949 -2.004508,4.639029 -4.268792,6.961989 -6.693328,6.86676 -12.002314,12.96374 -12.941905,14.86282 -0.556982,1.12576 -2.203504,3.34054 -3.658938,4.92173 -1.455434,1.58119 -2.575343,3.61538 -2.997451,4.30933 -0.536914,0.88269 -1.596702,2.13146 -2.355084,3.60838 l -1.260159,3.05339 -0.242792,8.02281 c -0.29491,9.74498 -0.379197,17.20973 -0.410669,19.62021 -0.01847,1.41431 -0.06813,1.72795 0.694494,7.01636 0.481949,3.34206 2.956128,8.11037 4.417872,10.98909 1.461745,2.87872 2.693905,5.23404 2.738133,5.23404 0.04423,0 1.602359,-2.14706 3.462511,-4.77126 z M 102.12766,164.5845 c 2.38724,-1.30328 4.36565,-2.38922 4.39647,-2.41322 0.0308,-0.024 -0.58605,-3.14575 -1.37084,-6.93724 -2.59607,-12.54221 -2.13394,-14.45951 5.41625,-22.47125 3.19868,-3.39423 5.26243,-6.13887 6.73422,-8.95607 1.16718,-2.23412 2.71702,-4.86179 3.44408,-5.83927 2.64278,-3.55298 7.86212,-6.04137 11.31355,-5.39388 4.13887,0.77646 10.48064,9.31861 11.88207,16.00476 1.23181,5.87691 0.24802,9.22214 -3.74607,12.73788 -3.7316,3.28468 -7.03598,4.72634 -10.83307,4.72634 -2.86219,0 -3.39499,-0.17022 -5.03221,-1.60771 -3.40449,-2.98919 -4.06915,-5.62738 -2.29427,-9.10645 1.27929,-2.50761 3.68879,-4.36507 6.71089,-5.17336 2.15495,-0.57636 2.55163,-0.5265 4.84182,0.60859 1.74741,0.86607 2.54454,1.58892 2.66142,2.41342 0.33103,2.33515 -2.04819,3.50698 -3.72199,1.83318 -1.83867,-1.83867 -6.91296,0.78063 -6.91296,3.56839 0,1.94981 1.28596,2.8697 3.99393,2.85698 3.00776,-0.0141 5.96178,-1.36785 8.26139,-3.78594 1.7059,-1.79378 1.78673,-2.04644 1.77598,-5.55171 -0.01,-3.26039 -0.22918,-4.08252 -1.95362,-7.32787 -2.53837,-4.77711 -5.16149,-7.8339 -6.72252,-7.8339 -3.55484,0 -5.67743,1.87002 -8.76118,7.71869 -1.49585,2.83704 -4.24526,6.66839 -7.64115,10.64807 -5.85601,6.86271 -6.82517,8.39142 -6.82517,10.76573 0,1.25831 2.01679,9.2198 3.31851,13.10019 0.1381,0.41166 2.20279,-0.28747 6.23125,-2.10999 3.31359,-1.49911 6.82897,-2.89532 7.81195,-3.10269 0.98297,-0.20737 2.40773,-0.69405 3.16613,-1.0815 0.75839,-0.38745 1.93556,-0.70446 2.61594,-0.70446 0.68037,0 2.24285,-0.44232 3.47216,-0.98294 3.02373,-1.32975 9.10329,-2.82542 16.77787,-4.12763 3.50488,-0.59471 5.7261,-1.70048 5.7954,-1.76978 0.0693,-0.0693 0.35865,-0.80166 -0.21636,-2.31496 -0.57501,-1.5133 -2.04545,-7.0145 -3.26765,-12.22488 -3.24311,-13.82579 -9.38836,-30.999252 -13.2562,-37.045658 -2.37936,-3.719532 -3.83225,-4.595302 -7.53999,-4.544927 -5.88873,0.08001 -9.68961,4.095548 -19.40509,20.501075 -7.16101,12.09203 -9.97747,15.47144 -15.1669,18.19841 -4.725987,2.48343 -5.922006,4.77336 -6.780255,12.98167 -0.52951,5.06425 -0.499723,6.02268 0.253344,8.15135 0.944793,2.67063 2.176287,9.9793 2.708958,16.07714 l 0.346158,3.9627 1.588666,-1.03885 c 0.873766,-0.57136 3.541857,-2.10516 5.929089,-3.40843 z m 70.33345,-15.74374 c 0.17358,-0.28085 2.00767,-0.24502 1.72683,-0.24502 -0.28085,0 -0.65266,0.22979 -0.82623,0.51064 -0.17358,0.28085 -0.0702,-0.64561 0.21066,-0.64561 0.28085,0 -1.28483,0.66084 -1.11126,0.37999 z m 315.70912,35.23171 v -7.39162 h 4.0851 4.08511 v 6.89362 l -0.7734,5.74457 -2.00187,1.14905 c -1.32382,0.75986 -3.25207,0.075 -4.02261,0.0918 l -1.34108,0.0292 z"
         id="path4" />
      <path
         style="fill:#646464"
         d="m 141.35107,233.52352 c -145.5016677,-231.054359 -145.5016677,-231.054359 0,0 z m 14.80851,0 c -160.3101777,-231.054359 -160.3101777,-231.054359 0,0 z m 123.02128,-0.98098 c -283.3314577,-230.073379 -283.3314577,-230.073379 0,0 z m 41.37234,-0.0297 c -324.7037977,-230.043679 -324.7037977,-230.043679 0,0 z M 238.33985,203.3951 c -242.4904477,-200.925939 -242.4904477,-200.925939 0,0 z m 8.52833,10.30703 c -251.0187777,-211.232969 -251.0187777,-211.232969 0,0 z m 64.36587,14.80851 c -315.3846477,-226.041479 -315.3846477,-226.041479 0,0 z m 57.36951,-2.29787 c -372.7541577,-223.743609 -372.7541577,-223.743609 0,0 z m -105.62483,1.36559 c -267.1293277,-225.109209 -267.1293277,-225.109209 0,0 z m -110.80851,-0.72992 c -156.3208177,-224.379289 -156.3208177,-224.379289 0,0 z m 10.29339,-2.67824 c 0,-0.70212 0.1159,-0.98936 0.25756,-0.63829 0.14166,0.35106 0.14166,0.92553 0,1.27659 -0.14166,0.35106 -0.25756,0.0638 -0.25756,-0.6383 z m 116.98321,0.68309 c -283.5974177,-222.384129 -283.5974177,-222.384129 0,0 z m 46.55319,0.2979 c -330.1506077,-222.682029 -330.1506077,-222.682029 0,0 z m 24.29787,-0.0403 c -354.4484777,-222.641689 -354.4484777,-222.641689 0,0 z m -206.94681,-0.73853 c -147.5016677,-221.903169 -147.5016677,-221.903169 0,0 z m 151.53894,-3.77074 c -299.0406077,-218.132419 -299.0406077,-218.132419 0,0 z m -173.50758,-4.7233 c -125.5330277,-213.409129 -125.5330277,-213.409129 0,0 z m 133.25363,-8.17616 c -258.7866577,-205.232969 -258.7866577,-205.232969 0,0 z m -91.8927,-3.06383 c -166.8939577,-202.169139 -166.8939577,-202.169139 0,0 z m -36.71273,0.6383 c -130.1812277,-202.807439 -130.1812277,-202.807439 0,0 z m 20.4084,1.15736 c -150.5896277,-203.964799 -150.5896277,-203.964799 0,0 z m -5.64115,-6.06163 c -144.9484777,-197.903169 -144.9484777,-197.903169 0,0 z m 113.83818,-1.35105 c -258.7866577,-196.552119 -258.7866577,-196.552119 0,0 z m 44.25491,-2.17022 c -303.0415677,-194.381889 -303.0415677,-194.381889 0,0 z m -144.34001,1.9149 c -158.7015577,-196.296799 -158.7015577,-196.296799 0,0 z m 51.31691,-3.70213 c 0,-0.70213 0.1159,-0.98936 0.25756,-0.6383 0.14165,0.35107 0.14165,0.92553 0,1.2766 -0.14166,0.35106 -0.25756,0.0638 -0.25756,-0.6383 z m 140.79041,-0.89362 c -350.8088777,-191.701079 -350.8088777,-191.701079 0,0 z m -192.13699,-1.79787 c -158.6718877,-189.903179 -158.6718877,-189.903179 0,0 z m 190.76976,-2.15957 c 0.47855,-2.64736 0,0 0,0 z M 162.4233,188.1277 c 0.45328,0.0577 0,0 0,0 z m 106.60579,-2.76596 c -273.1796877,-182.892539 -273.1796877,-182.892539 0,0 z m 16.67304,-0.76595 c -289.8527277,-182.126589 -289.8527277,-182.126589 0,0 z m -132.51064,2.12169 c -157.3420877,-184.248279 -157.3420877,-184.248279 0,0 z M 139.30851,183.481 c -143.4591077,-181.011799 -143.4591077,-181.011799 0,0 z m 54.12767,-0.51063 c -197.5867777,-180.501169 -197.5867777,-180.501169 0,0 z m 36.25532,0 c -233.8420977,-180.501169 -233.8420977,-180.501169 0,0 z m 45.95744,0 c -279.7995377,-180.501169 -279.7995377,-180.501169 0,0 z m 4.59575,0 c 0.36861,-0.14751 0.80904,-0.12937 0.97872,0.0403 0.40486,0.40486 -0.97872,-0.0403 -0.97872,-0.0403 z m 71.48936,0 c -355.8846477,-180.501209 -355.8846477,-180.501209 0,0 z m 6.8617,0.0106 c -362.7463477,-180.511809 -362.7463477,-180.511809 0,0 z m -95.69432,-2.72564 c -267.0520277,-177.786129 -267.0520277,-177.786129 0,0 z m -77.66738,-3.32503 c -189.3846477,-174.8809437 -189.3846477,-174.8809437 0,0 z m 152.42553,0.41184 c -341.8101777,-174.872939 -341.8101777,-174.872939 0,0 z m 3.58419,0.007 c 0.49683,-0.12947 1.1862,-0.12095 1.53191,0.0189 0.34572,0.13988 -0.0608,0.24581 -0.90333,0.2354 -0.84255,-0.0104 -1.12541,-0.12485 -0.62858,-0.25432 z m -202.99909,-0.97593 c -142.3952777,-173.904009 -142.3952777,-173.904009 0,0 z m 5.13052,-0.57667 c 7.7172,-0.237 0,0 0,0 z m 54.63076,-0.49724 c -202.1565577,-172.830099 -202.1565577,-172.830099 0,0 z m 33.44085,7.8e-4 c -235.5974077,-172.830879 -235.5974077,-172.830879 0,0 z m 48.00001,0 c -283.5974177,-172.830879 -283.5974177,-172.830879 0,0 z"
         id="path3" />
      <path
         style="fill:#000000"
         d="m 141.19149,233.56989 c -4.93448,-0.68702 -8.04892,-1.57235 -11.13246,-3.16458 -6.01726,-3.10708 -8.53158,-7.27098 -8.52212,-14.1133 0.015,-10.83721 8.73597,-16.1218 26.60536,-16.1218 h 6.05104 l 0.32874,-1.30979 c 0.59451,-2.36872 -0.0733,-9.09893 -1.11261,-11.21333 -1.41519,-2.87905 -3.62696,-3.9649 -8.60868,-4.22637 -4.59294,-0.24107 -11.31851,0.87832 -15.04988,2.50486 -1.23702,0.53924 -2.32082,0.90874 -2.40843,0.82112 -0.0876,-0.0876 -0.74374,-1.4808 -1.45804,-3.09597 l -1.29873,-2.93666 2.68588,-1.22659 c 4.73019,-2.16017 8.47748,-2.90348 16.02589,-3.17889 5.8994,-0.21524 7.6821,-0.10711 9.79291,0.59399 3.96108,1.31566 6.42502,3.37578 8.08794,6.76237 l 1.40459,3.18295 0.0667,20.47125 c 0.008,14.34688 0.50037,21.12251 0.60265,22.34042 0.10573,1.25899 0.14113,0.71448 -0.11833,2.19083 -0.66588,3.78889 -8.6417,1.73291 -12.49561,1.79312 -4.35319,0.0768 -8.60425,0.0437 -9.44681,-0.0736 z m 12.47859,-8.65899 c -0.36863,-0.36862 -1.45839,1.2716 -1.48373,2.058 -0.009,0.27545 -0.0324,-1.33905 0.86595,-2.23742 0.89837,-0.89836 0.79961,0.36125 0.61778,0.17942 z m -8.06914,-1.10346 c 2.02496,-0.64558 3.50532,-1.63384 5.67566,-3.78894 l 2.93617,-2.91556 v -5.11595 -5.11594 l -2.35085,-0.35253 c -3.10172,-0.46514 -10.43797,0.1324 -14.13208,1.15104 -1.87622,0.51736 -3.70728,1.48514 -5.02745,2.65718 -1.72879,1.53481 -2.12156,2.24443 -2.34601,4.23858 -0.3469,3.08212 0.0425,4.5451 1.75001,6.57433 2.84871,3.3855 8.03024,4.40986 13.49455,2.66779 z m 125.80332,7.81242 c -3.91188,-0.97089 -7.43827,-3.00445 -10.04784,-5.79428 -4.85479,-5.19017 -6.67453,-11.14068 -6.67453,-21.82562 0,-11.34006 2.1642,-17.69179 7.80858,-22.91749 3.81698,-3.53385 7.45657,-4.94187 13.69001,-5.29616 11.84376,-0.67315 18.80358,3.19334 21.50778,11.94852 0.79222,2.5649 1.03515,4.76707 1.03515,9.38354 0,3.31766 -0.13948,6.39558 -0.30995,6.83983 -0.27431,0.71483 -2.32597,0.80772 -17.84024,0.80772 h -17.53028 l 0.20256,1.65957 c 0.11141,0.91277 0.31795,2.71892 0.45898,4.01368 0.93478,8.58229 6.38554,13.82106 15.14886,14.55968 6.4008,0.5395 12.0657,-1.44402 18.70559,-6.54962 4.33716,-3.33496 8.42369,-5.90379 10.03526,-6.30827 l 1.34199,-0.33682 v -13.71123 -13.71122 l -4.21277,-0.14831 -4.21276,-0.14831 -0.15003,-3.70213 -0.15003,-3.70213 h 4.36279 4.3628 v -5.34008 -5.34008 l 3.70213,-1.07075 c 2.03617,-0.58891 3.98936,-1.1659 4.34042,-1.28219 0.4887,-0.16189 0.6383,1.34067 0.6383,6.41083 v 6.62227 h 7.40425 c 4.73858,0 7.06846,0.50358 7.40426,0.52586 1.25,0.083 9.56739,0.45597 13.77096,-0.65507 6.58163,-1.73957 19.25455,-0.60512 23.41736,2.09627 0.67584,0.43857 0.3364,2.60907 -0.92821,5.93525 l -0.4323,1.13702 -3.68539,-1.23604 c -4.1537,-1.3931 -9.4037,-1.98532 -12.92227,-1.45768 -3.05091,0.45751 -5.24821,2.30614 -5.98253,5.0332 -1.26846,4.71067 1.13633,7.52088 9.07123,10.60053 7.23506,2.80804 10.01234,4.2907 12.39365,6.61641 2.90631,2.83844 4.01748,5.13078 4.4382,9.15601 0.86306,8.25734 -3.83887,15.01331 -11.94943,17.16953 -4.00914,1.06584 -13.06159,0.8786 -17.61034,-0.36426 -4.38195,-1.19728 -4.51349,-1.41811 -7.86341,-1.38506 -1.96838,0.0194 -2.40832,0.13014 -3.23624,0.4757 -0.61756,0.25776 -2.18149,1.1323 -3.71326,1.48575 -1.19475,0.27565 -3.89568,0.50176 -6.00206,0.50246 -6.5774,0.002 -9.81491,-2.25368 -11.21467,-7.81424 l -0.81333,-3.23097 -5.79378,3.48944 c -5.5377,3.33522 -10.87211,5.42811 -17.9229,7.03184 -3.09567,0.70412 -10.89583,0.60808 -14.04256,-0.1729 z m 57.88892,-7.40814 c 2.26485,-0.70489 2.40032,-0.81844 2.8549,-0.92381 0.39212,-0.0909 1.09691,-0.55421 3.69475,-0.6067 l 2.1791,-0.044 4.16522,0.5591 c 8.63102,1.15855 15.18051,2.46407 18.7473,-0.80465 1.70889,-1.56607 1.84782,-1.92212 2.03371,-5.21199 0.18314,-3.24118 0.086,-3.66598 -1.18281,-5.17391 -1.78131,-2.11696 -4.59042,-3.73787 -9.79716,-5.65313 -5.84831,-2.15126 -9.02306,-3.84709 -11.11112,-5.93515 -2.85755,-2.85756 -3.5129,-4.57054 -3.75754,-9.82174 -0.21392,-4.59158 -0.37945,-4.19216 -1.45215,-4.72341 -0.60726,-0.30074 -1.92445,-0.58775 -3.06528,-0.76596 -1.40004,-0.2187 -3.71904,-0.76595 -8.40913,-0.76595 h -6.57594 v 17.60668 c 0,14.82084 0.12707,17.92427 0.80307,19.61377 1.43715,3.59178 4.9677,4.48885 10.87308,2.65088 z M 290.5532,195.66715 c 0,-3.06946 -1.19192,-7.1823 -2.60039,-8.97287 -2.0118,-2.5576 -4.83536,-3.61752 -9.65493,-3.62432 -3.6283,-0.005 -4.81017,0.21414 -7.20356,1.33644 -4.24527,1.99067 -6.66126,5.61553 -7.38646,11.08236 l -0.35006,2.6389 h 13.5977 13.5977 z M 174.12766,204 v -27.31915 h 3.0092 c 2.02119,0 5.45916,0.24966 5.94157,0.2983 0.76431,0.0771 2.20784,0.0588 2.97565,-0.0172 0.5013,-0.0496 5.60808,-0.32762 5.98167,-0.55851 0.3736,-0.2309 10.2269,-0.44935 21.89623,-0.48545 16.1722,-0.05 21.78005,0.0942 23.58518,0.60669 3.44712,0.97863 6.27669,4.01356 7.69732,8.25596 1.08856,3.25073 1.14221,4.27333 1.30968,24.96404 l 0.17463,21.57447 h -4.07457 -4.07457 l -0.1783,-20.29787 c -0.15927,-18.13114 -0.27553,-20.51591 -1.08914,-22.34043 -1.8123,-4.06403 -4.62677,-5.86282 -9.18374,-5.86949 -2.74469,-0.004 -6.14225,1.37239 -6.84213,1.87484 -0.34134,0.24505 -1.09547,0.90927 -1.78066,1.49255 -0.87374,0.74379 -1.99066,1.80174 -3.00155,3.93856 l -1.4946,3.15929 -4e-4,19.02127 -4e-4,19.02128 h -4.30367 -4.30367 l -0.19313,-20.04255 c -0.16851,-17.48631 -0.30637,-20.34253 -1.08097,-22.39453 -1.4997,-3.97287 -4.6668,-6.07356 -9.15679,-6.07356 -4.84501,0 -9.50653,3.02432 -11.87956,7.70727 l -1.25242,2.47155 v 19.16591 19.16591 h -4.34043 -4.34043 z"
         id="path2" />
    </g>
  </g>
</svg>
